<svg aria-hidden="true" style="position: absolute; width: 0; height: 0; overflow: hidden;" version="1.1" xmlns="http://www.w3.org/2000/svg" xmlns:xlink="http://www.w3.org/1999/xlink">
<defs>
<symbol id="icon-burger-menu" viewBox="0 0 43 32">
<path fill="#d9d9d9" style="fill: var(--color1, #d9d9d9)" d="M0 0h43.294v3.765h-43.294v-3.765z"></path>
<path fill="#d9d9d9" style="fill: var(--color1, #d9d9d9)" d="M0 28.235h43.294v3.765h-43.294v-3.765z"></path>
<path fill="#d9d9d9" style="fill: var(--color1, #d9d9d9)" d="M0 9.412h43.294v3.765h-43.294v-3.765z"></path>
<path fill="#d9d9d9" style="fill: var(--color1, #d9d9d9)" d="M0 18.824h43.294v3.765h-43.294v-3.765z"></path>
</symbol>
<symbol id="icon-logo" viewBox="0 0 29 32">
<path fill="#252525" style="fill: var(--color2, #252525)" d="M28.966 16.138c0 7.999-6.484 14.483-14.483 14.483s-14.483-6.484-14.483-14.483c0-7.999 6.484-14.483 14.483-14.483s14.483 6.484 14.483 14.483z"></path>
<path fill="#fff" style="fill: var(--color3, #fff)" opacity="0.65" d="M8.915 6.395l5.718 16.213h0.226l5.718-16.213h2.445l-7.072 19.26h-2.408l-7.072-19.26h2.445z"></path>
<path fill="#fff" style="fill: var(--color3, #fff)" d="M18.658 11.21c-0.113-0.953-0.571-1.693-1.373-2.219s-1.787-0.79-2.953-0.79c-0.853 0-1.599 0.138-2.238 0.414-0.633 0.276-1.129 0.655-1.486 1.138-0.351 0.483-0.527 1.031-0.527 1.646 0 0.514 0.122 0.956 0.367 1.326 0.251 0.364 0.571 0.668 0.959 0.912 0.389 0.238 0.796 0.436 1.223 0.592 0.426 0.15 0.818 0.273 1.176 0.367l1.956 0.527c0.502 0.132 1.060 0.313 1.674 0.545 0.621 0.232 1.213 0.549 1.777 0.95 0.571 0.395 1.041 0.903 1.411 1.524s0.555 1.382 0.555 2.285c0 1.041-0.273 1.981-0.818 2.821-0.539 0.84-1.329 1.508-2.37 2.003-1.034 0.495-2.292 0.743-3.771 0.743-1.379 0-2.574-0.223-3.583-0.668-1.003-0.445-1.793-1.066-2.37-1.862-0.571-0.796-0.893-1.721-0.969-2.774h2.408c0.063 0.727 0.307 1.329 0.734 1.806 0.433 0.47 0.978 0.821 1.636 1.053 0.665 0.226 1.379 0.339 2.144 0.339 0.89 0 1.69-0.144 2.398-0.433 0.708-0.295 1.27-0.702 1.683-1.223 0.414-0.527 0.621-1.141 0.621-1.843 0-0.64-0.179-1.16-0.536-1.561s-0.828-0.727-1.411-0.978c-0.583-0.251-1.213-0.47-1.89-0.658l-2.37-0.677c-1.505-0.433-2.696-1.050-3.574-1.853s-1.317-1.853-1.317-3.15c0-1.078 0.292-2.019 0.875-2.821 0.589-0.809 1.379-1.436 2.37-1.881 0.997-0.451 2.11-0.677 3.339-0.677 1.241 0 2.345 0.223 3.31 0.668 0.966 0.439 1.73 1.041 2.295 1.806 0.57 0.765 0.871 1.633 0.903 2.605h-2.257z"></path>
</symbol>
<symbol id="icon-moblie-menu-close" viewBox="0 0 32 32"><path fill="#d9d9d9" style="fill: var(--color1, #d9d9d9)" d="M23.733 10.304 22.229 8.8l-5.963 5.963L10.303 8.8l-1.504 1.504 5.963 5.963-5.963 5.963 1.504 1.504 5.963-5.963 5.963 5.963 1.504-1.504-5.963-5.963 5.963-5.963z"/></symbol>
<symbol id="icon-instagram" viewBox="0 0 32 32"><path  d="M31.969 9.408c-.075-1.7-.35-2.869-.744-3.882a7.806 7.806 0 0 0-1.851-2.838A7.867 7.867 0 0 0 26.542.844C25.523.45 24.36.175 22.66.1 20.947.019 20.403 0 16.059 0s-4.888.019-6.595.094c-1.7.075-2.869.35-3.882.744a7.803 7.803 0 0 0-2.838 1.85A7.867 7.867 0 0 0 .9 5.52C.506 6.539.231 7.702.156 9.402c-.081 1.713-.1 2.257-.1 6.601s.019 4.888.094 6.595c.075 1.7.35 2.869.744 3.882a7.895 7.895 0 0 0 1.85 2.838 7.867 7.867 0 0 0 2.832 1.844c1.019.394 2.182.669 3.882.744 1.706.075 2.25.094 6.595.094s4.888-.019 6.595-.094c1.7-.075 2.869-.35 3.882-.744a8.184 8.184 0 0 0 4.682-4.682c.394-1.019.669-2.182.744-3.882.075-1.707.094-2.251.094-6.595s-.006-4.888-.081-6.595zm-2.882 13.065c-.069 1.563-.331 2.407-.55 2.969a5.31 5.31 0 0 1-3.038 3.038c-.563.219-1.413.481-2.969.55-1.688.075-2.194.094-6.464.094s-4.782-.019-6.464-.094c-1.563-.069-2.407-.331-2.969-.55a4.926 4.926 0 0 1-1.838-1.194 4.974 4.974 0 0 1-1.194-1.838c-.219-.563-.481-1.413-.55-2.969-.075-1.688-.094-2.194-.094-6.464s.019-4.782.094-6.464c.069-1.563.331-2.407.55-2.969a4.868 4.868 0 0 1 1.2-1.838A4.974 4.974 0 0 1 6.639 3.55c.563-.219 1.413-.481 2.969-.55 1.688-.075 2.194-.094 6.464-.094 4.276 0 4.782.019 6.464.094 1.563.069 2.407.331 2.969.55a4.914 4.914 0 0 1 1.838 1.194 4.974 4.974 0 0 1 1.194 1.838c.219.563.481 1.413.55 2.969.075 1.688.094 2.194.094 6.464s-.019 4.77-.094 6.458z"/><path  d="M16.059 7.783c-4.538 0-8.22 3.682-8.22 8.22s3.682 8.22 8.22 8.22c4.539 0 8.22-3.682 8.22-8.22s-3.682-8.22-8.22-8.22zm0 13.552a5.333 5.333 0 0 1 0-10.664 5.333 5.333 0 0 1 0 10.664zM26.524 7.458a1.919 1.919 0 1 1-3.838 0 1.919 1.919 0 0 1 3.838 0z"/>
</symbol>
<symbol id="icon-twitter" viewBox="0 0 32 32"><path  d="M32 6.078c-1.19.522-2.458.868-3.78 1.036a6.523 6.523 0 0 0 2.886-3.626 13.11 13.11 0 0 1-4.16 1.588A6.574 6.574 0 0 0 22.154 3c-3.632 0-6.556 2.948-6.556 6.562 0 .52.044 1.02.152 1.496-5.454-.266-10.28-2.88-13.522-6.862a6.605 6.605 0 0 0-.898 3.316 6.57 6.57 0 0 0 2.914 5.452 6.479 6.479 0 0 1-2.964-.808v.072c0 3.188 2.274 5.836 5.256 6.446a6.548 6.548 0 0 1-1.72.216 5.8 5.8 0 0 1-1.242-.112c.85 2.598 3.262 4.508 6.13 4.57a13.182 13.182 0 0 1-8.134 2.798c-.538 0-1.054-.024-1.57-.09A18.469 18.469 0 0 0 10.064 29c12.072 0 18.672-10 18.672-18.668 0-.29-.01-.57-.024-.848A13.087 13.087 0 0 0 32 6.078z"/>
</symbol>
<symbol id="icon-facebook" viewBox="0 0 32 32"><path  d="M21.329 5.313h2.921V.225C23.746.156 22.013 0 19.994 0c-4.212 0-7.097 2.649-7.097 7.519V12H8.249v5.688h4.648V32h5.699V17.689h4.46l.708-5.688h-5.169V8.082c.001-1.644.444-2.769 2.735-2.769z"/>
</symbol>
<symbol id="icon-play-btn" viewBox="0 0 35 32">
<path fill="#d9d9d9" style="fill: var(--color1, #d9d9d9)" d="M32.074 16.34l-30.544 15.089v-30.154l30.544 15.065z"></path>
</symbol>
</defs>
</svg>

